PathFileType	4	(X/Y/Z)	E:\Qualisys_Data\Carbon_Farble_Plate\Data\Amateur_Runner\S14\T2\S14T2V11_c3d.trc
DataRate	CameraRate	NumFrames	NumMarkers	Units	OrigDataRate	OrigDataStartFrame	OrigNumFrames
200.000000	200.000000	5	39	mm	200.000000	208	334
Frame#	Time	LSHO			RSHO			LICST			RICST			LASIS			LHEEL			RASIS			LTROC			RTROC			SACR			LTH1			LSK4			LTH2			LTH3			RHM5			LSK2			LTH4			RTH1			LTOE			RTH2			RTH3			RTH4			LLEP			RLEP			LSK1			LSK3			RSK1			LHM5			RSK2			LFT1			RSK3			RSK4			LLME			RLME			RTOE			RHEEL			RFT1			RFT2			LFT2			
		X1	Y1	Z1	X2	Y2	Z2	X3	Y3	Z3	X4	Y4	Z4	X5	Y5	Z5	X6	Y6	Z6	X7	Y7	Z7	X8	Y8	Z8	X9	Y9	Z9	X10	Y10	Z10	X11	Y11	Z11	X12	Y12	Z12	X13	Y13	Z13	X14	Y14	Z14	X15	Y15	Z15	X16	Y16	Z16	X17	Y17	Z17	X18	Y18	Z18	X19	Y19	Z19	X20	Y20	Z20	X21	Y21	Z21	X22	Y22	Z22	X23	Y23	Z23	X24	Y24	Z24	X25	Y25	Z25	X26	Y26	Z26	X27	Y27	Z27	X28	Y28	Z28	X29	Y29	Z29	X30	Y30	Z30	X31	Y31	Z31	X32	Y32	Z32	X33	Y33	Z33	X34	Y34	Z34	X35	Y35	Z35	X36	Y36	Z36	X37	Y37	Z37	X38	Y38	Z38	X39	Y39	Z39	

209	1.04	657.45751953125	1391.958984375	-452.6703186035156	715.4303588867188	1388.8134765625	-152.2363128662109	619.641845703125	946.8483276367188	-439.495849609375	653.3573608398438	946.5147705078124	-160.1363372802734	669.82666015625	900.0886840820312	-417.5761413574219	388.8822631835938	358.5553588867188	-355.1863708496094	681.8311157226562	908.5255126953124	-181.7085723876953	547.0577392578125	817.3650512695312	-456.3750610351562	544.3114013671875	825.45947265625	-132.0271453857422	495.7215881347656	926.4715576171876	-328.1206359863281	717.099609375	638.911376953125	-478.583740234375	574.6339111328125	431.2129821777344	-442.4992065429688	654.3790893554688	602.843994140625	-449.076904296875	773.847412109375	556.6549072265625	-465.3923950195312	504.0820007324219	58.50237274169922	-179.6164703369141	660.7284545898438	475.1325988769531	-464.01708984375	705.776611328125	520.6895751953125	-442.0022583007812	685.8403930664062	611.0780029296875	-145.1167755126953	506.1033325195312	128.1264343261719	-372.9855651855469	608.541748046875	611.2020874023438	-137.6458282470703	687.6024169921875	516.0916748046875	-181.0920257568359	604.6080322265625	512.872314453125	-164.8538970947266	751.6951904296875	490.2108459472656	-462.1977844238281	625.9747924804688	441.2529602050781	-178.2413940429688	701.5629272460938	402.7884216308594	-451.9881896972656	611.3577880859375	359.1141967773438	-433.8607788085938	598.1082153320312	320.9476623535156	-183.2217712402344	455.8731079101562	175.3063659667969	-436.2503051757812	524.0237426757812	361.5343017578125	-169.5402526855469	368.8029479980469	336.3993530273438	-332.0623168945312	539.419677734375	237.1790313720703	-202.3300170898438	475.4176635742188	280.4020690917969	-186.7210540771484	442.6568298339844	319.1194458007812	-416.3721923828125	403.8194274902344	127.0288009643555	-213.4901733398438	581.7260131835938	48.72857666015625	-242.6451110839844	333.1282043457031	113.3004608154297	-269.2908935546875	339.1043090820312	77.1686019897461	-293.1090698242188	326.4336853027344	89.6683349609375	-239.2568359375	362.6768188476562	339.334716796875	-388.4593811035156
210	1.045	671.12451171875	1396.147338867188	-453.1423034667969	732.9171752929688	1392.892211914062	-154.0586090087891	635.8660888671875	950.6204223632812	-439.1991577148438	670.4713134765625	950.4121704101562	-159.6303405761719	686.80517578125	903.965576171875	-417.297119140625	413.2925109863281	349.6400756835938	-355.3095703125	698.345947265625	911.3753662109376	-181.4545593261719	564.6099243164062	822.1611328125	-456.8688354492188	560.3248901367188	829.4306640625	-131.2609710693359	511.35791015625	931.1721801757812	-326.49658203125	736.6350708007812	644.4417114257812	-477.9227294921875	596.694580078125	429.8828735351562	-442.6114196777344	673.5254516601562	607.467529296875	-448.9950561523438	794.0598754882812	562.89892578125	-464.0843505859375	505.3067626953125	59.03446960449219	-179.4881591796875	681.3335571289062	476.2920532226562	-462.9422302246094	725.9140625	525.9520874023438	-441.4636840820312	695.717529296875	612.4949951171875	-145.6474304199219	540.6168823242188	124.8456497192383	-372.8852844238281	619.02978515625	614.7525634765625	-137.9558868408203	695.0987548828125	517.3285522460938	-181.9088592529297	612.4207763671875	516.2380981445312	-165.3828277587891	772.37744140625	495.3556518554688	-461.3857421875	631.5155029296875	444.3606567382812	-178.5070495605469	725.0284423828125	405.6400756835938	-450.8863525390625	635.860107421875	358.9389953613281	-433.2401123046875	602.3551025390625	323.9815979003906	-182.9011077880859	488.0467834472656	169.7597808837891	-436.2603759765625	528.6256103515625	365.4623413085938	-169.5791931152344	393.8052368164062	327.2152099609375	-332.5730285644531	542.63720703125	240.7494049072266	-201.6456146240234	479.3995971679688	284.8402099609375	-186.3484039306641	468.16845703125	312.8968200683594	-415.9353942871094	406.4208374023438	131.1707305908203	-212.8947296142578	581.9241333007812	48.61930084228516	-242.6638793945312	335.6479797363281	118.2528305053711	-268.6748352050781	341.1009521484375	82.31683349609375	-292.9407348632812	328.8200378417969	94.9639129638672	-238.5177764892578	387.5238647460938	330.0466918945312	-388.6550598144531
211	1.05	684.607666015625	1400.571411132812	-453.3569641113281	750.4500732421875	1397.328979492188	-155.1804962158203	654.3350219726562	955.2283935546876	-438.4894409179688	687.5125122070312	954.3592529296876	-159.9213256835938	703.4633178710938	907.8472900390624	-416.524169921875	437.1092834472656	340.8635864257812	-355.5118713378906	715.017822265625	914.6826782226562	-180.9322967529297	582.464111328125	826.9466552734375	-457.7794189453125	576.5214233398438	833.5602416992188	-130.5982360839844	526.7798461914062	935.8009033203124	-325.1136169433594	756.2430419921875	650.16552734375	-477.0074462890625	618.378173828125	428.1642761230469	-442.0489196777344	692.9320068359375	612.39501953125	-449.6585693359375	813.9114990234375	568.8927001953125	-462.8774108886719	506.0754699707031	58.48859024047852	-180.1203002929688	701.7772827148438	477.7871398925781	-462.2120056152344	745.6945190429688	531.5103149414062	-441.4937133789062	706.4436645507812	614.691162109375	-146.3188171386719	574.4763793945312	121.7182998657227	-373.3143920898438	629.4071655273438	618.8289184570312	-137.0603637695312	703.1719360351562	519.3783569335938	-182.2597351074219	620.4180908203125	520.5123291015625	-165.2528533935547	792.7381591796875	500.6299133300781	-460.0918579101562	637.5590209960938	447.6421203613281	-178.2564239501953	747.5703735351562	409.5625610351562	-452.2298889160156	660.173583984375	359.1652221679688	-433.2455444335938	606.997314453125	327.6736450195312	-182.7009735107422	520.3482055664062	164.4746398925781	-436.8884582519531	533.7345581054688	369.9943542480469	-169.0625305175781	418.7904052734375	317.4388427734375	-332.4747619628906	546.3767700195312	244.9943695068359	-200.5909729003906	483.3799438476562	289.6182250976562	-186.0105285644531	494.2204284667969	306.500732421875	-416.3603820800781	409.5013732910156	135.6809692382812	-212.0699768066406	582.496337890625	48.4107666015625	-242.4768981933594	337.8843383789062	122.1397552490234	-267.4815979003906	344.2243347167969	88.48400115966797	-291.6099243164062	330.9587097167969	100.119270324707	-238.3376159667969	412.1759338378906	320.8114013671875	-388.7631530761719
212	1.055	698.048828125	1405.140258789062	-453.5173645019531	767.5753173828125	1401.844970703125	-156.6732940673828	670.2141723632812	959.6007080078124	-438.0079345703125	704.7929077148438	958.492919921875	-160.3388519287109	721.546142578125	911.8560791015624	-415.6881713867188	462.4819641113281	331.4625549316406	-356.0341796875	731.934326171875	917.907958984375	-180.9068450927734	600.852783203125	832.1796875	-458.8140563964844	592.756591796875	837.7242431640625	-130.1367034912109	542.7096557617188	941.0032958984376	-323.9031982421875	775.3790893554688	655.71435546875	-476.064208984375	640.1183471679688	426.0818481445312	-441.7003173828125	712.0994873046875	617.252197265625	-450.7886352539062	833.5213012695312	574.8233642578125	-461.6936950683594	506.8697814941406	59.00725555419922	-179.3785095214844	721.5543823242188	478.8254699707031	-461.7254943847656	765.3508911132812	536.9898681640625	-441.3262939453125	717.35693359375	617.1238403320312	-147.0166625976562	608.8228149414062	119.1578750610352	-373.8944091796875	639.4644165039062	622.5709228515625	-136.6842193603516	711.4769897460938	522.1377563476562	-182.5810089111328	629.4593505859375	524.6663818359375	-164.8447723388672	812.9095458984375	505.4836120605469	-458.7015686035156	644.1983642578125	451.564208984375	-177.8791046142578	769.5431518554688	412.6557312011719	-450.9848937988281	684.5850219726562	358.3119506835938	-432.4527282714844	611.9006958007812	331.5350341796875	-181.9554290771484	552.607177734375	159.3762512207031	-437.014892578125	539.0238037109375	374.7237854003906	-168.6794891357422	444.6080322265625	307.0289916992188	-332.5877380371094	550.6350708007812	249.3218994140625	-199.5425415039062	488.3864135742188	294.8890686035156	-184.7699584960938	520.6473388671875	299.4714050292969	-415.4834594726562	412.980224609375	140.5293884277344	-211.2704315185547	583.3043823242188	48.78340911865234	-241.9695739746094	341.0426635742188	128.5600738525391	-266.2109069824219	347.1568298339844	95.07496643066406	-292.2279357910156	333.90234375	105.9372100830078	-237.7051086425781	438.2503662109375	309.4890747070312	-388.2084045410156
213	1.06	711.8037719726562	1409.963500976562	-453.8988342285156	784.8795166015625	1406.452392578125	-158.1064453125	688.3129272460938	964.2869262695312	-437.537353515625	722.372314453125	962.6903686523438	-160.8349914550781	736.8785400390625	916.2205810546876	-415.6139831542969	486.7640991210938	322.1317138671875	-355.6170654296875	748.9069213867188	921.68359375	-181.2359466552734	618.4549560546875	837.5747680664062	-459.8609313964844	609.5082397460938	842.4443969726562	-129.2801208496094	558.637939453125	946.1688232421876	-322.9666748046875	794.68017578125	661.2687377929688	-475.4706115722656	661.62744140625	424.2362060546875	-441.1025695800781	731.2363891601562	622.7498168945312	-451.3491821289062	852.8439331054688	580.79443359375	-460.247314453125	508.4577026367188	59.67576217651367	-178.9016876220703	741.4465942382812	479.9046325683594	-460.7597045898438	784.9529418945312	541.940673828125	-441.021484375	728.3230590820312	619.9915161132812	-147.7109527587891	642.9412841796875	116.366569519043	-374.5528259277344	650.8458862304688	626.989990234375	-136.6865081787109	720.2071533203125	524.9322509765625	-183.1796264648438	637.9795532226562	529.560791015625	-164.7702941894531	832.7300415039062	510.536865234375	-458.3327941894531	651.2545166015625	455.7568664550781	-177.1770782470703	791.4688720703125	415.8946228027344	-450.0151977539062	708.6854858398438	358.3650512695312	-432.0678405761719	617.3104858398438	336.1144714355469	-180.6067352294922	585.0819702148438	154.5361480712891	-437.4446411132812	544.6192626953125	379.7874755859375	-168.3519592285156	470.6819763183594	297.0680847167969	-332.5839233398438	556.47509765625	253.6748657226562	-196.5119934082031	493.3232116699219	300.3152465820312	-184.2458953857422	546.7866821289062	293.4858093261719	-416.0226135253906	416.8922424316406	145.4880828857422	-210.2116851806641	583.9934692382812	47.99456024169922	-242.0056762695312	346.1784057617188	136.1558074951172	-266.1217346191406	350.5485229492188	101.8657989501953	-291.4825439453125	337.6694946289062	112.2193756103516	-236.9578552246094	464.2189636230469	299.3432006835938	-388.1915588378906
